HIERARCHY
ROOT Body Controller
{
	OFFSET	0.00	0.00	0.00
	CHANNELS 6 Xposition Yposition Zposition Zrotation Xrotation Yrotation
	JOINT Body Controller.001
	{
		OFFSET	 0.000000	-0.036916	-0.004642
		CHANNELS 3 Zrotation Xrotation Yrotation
		JOINT Body Controller.002
		{
			OFFSET	 0.000000	 0.000000	 0.076729
			CHANNELS 3 Zrotation Xrotation Yrotation
			JOINT Body Controller.003
			{
				OFFSET	 0.000000	 0.000000	 0.078516
				CHANNELS 3 Zrotation Xrotation Yrotation
				JOINT Body Controller.004
				{
					OFFSET	 0.000000	 0.000000	 0.042842
					CHANNELS 3 Zrotation Xrotation Yrotation
					End Site
					{
						OFFSET	 0.000000	 0.000000	 0.042842
					}
				}
			}
			JOINT Shoulder.L
			{
				OFFSET	 0.000000	 0.000000	 0.078516
				CHANNELS 3 Zrotation Xrotation Yrotation
				JOINT Upperarm.L
				{
					OFFSET	-0.018201	 0.028733	 0.072586
					CHANNELS 3 Zrotation Xrotation Yrotation
					JOINT Forearm.L
					{
						OFFSET	 0.000000	 0.000000	 0.097523
						CHANNELS 3 Zrotation Xrotation Yrotation
						JOINT Hand.L 1
						{
							OFFSET	 0.000000	 0.000000	 0.104201
							CHANNELS 3 Zrotation Xrotation Yrotation
							End Site
							{
								OFFSET	 0.000000	 0.000000	 0.104201
							}
						}
					}
				}
			}
			JOINT Shoulder.R
			{
				OFFSET	 0.000000	 0.000000	 0.078516
				CHANNELS 3 Zrotation Xrotation Yrotation
				JOINT Upperarm.R
				{
					OFFSET	 0.018201	 0.028733	 0.072586
					CHANNELS 3 Zrotation Xrotation Yrotation
					JOINT Forearm.R
					{
						OFFSET	-0.000000	 0.000000	 0.097523
						CHANNELS 3 Zrotation Xrotation Yrotation
						JOINT Hand.R 1
						{
							OFFSET	 0.000000	 0.000000	 0.104201
							CHANNELS 3 Zrotation Xrotation Yrotation
							End Site
							{
								OFFSET	 0.000000	 0.000000	 0.104201
							}
						}
					}
				}
			}
		}
	}
	JOINT Hip
	{
		OFFSET	 0.000000	 0.025198	-0.007161
		CHANNELS 3 Zrotation Xrotation Yrotation
		JOINT Upperleg.L
		{
			OFFSET	 0.037329	-0.035320	 0.000704
			CHANNELS 3 Zrotation Xrotation Yrotation
			JOINT Foreleg.L
			{
				OFFSET	-0.000000	 0.000000	 0.142509
				CHANNELS 3 Zrotation Xrotation Yrotation
				JOINT Foot.L 1
				{
					OFFSET	 0.000000	 0.000000	 0.128640
					CHANNELS 3 Zrotation Xrotation Yrotation
					End Site
					{
						OFFSET	 0.000000	 0.000000	 0.128640
					}
				}
				JOINT Heel.L
				{
					OFFSET	-0.003987	 0.000323	 0.137245
					CHANNELS 3 Zrotation Xrotation Yrotation
					End Site
					{
						OFFSET	-0.003987	 0.000323	 0.137245
					}
				}
			}
		}
		JOINT Upperleg.R
		{
			OFFSET	 0.037329	 0.035320	 0.000704
			CHANNELS 3 Zrotation Xrotation Yrotation
			JOINT Foreleg.R
			{
				OFFSET	 0.000000	 0.000000	 0.142509
				CHANNELS 3 Zrotation Xrotation Yrotation
				JOINT Foot.R 1
				{
					OFFSET	 0.000000	 0.000000	 0.128640
					CHANNELS 3 Zrotation Xrotation Yrotation
					End Site
					{
						OFFSET	 0.000000	 0.000000	 0.128640
					}
				}
				JOINT Heel.R
				{
					OFFSET	 0.003987	 0.000323	 0.137245
					CHANNELS 3 Zrotation Xrotation Yrotation
					End Site
					{
						OFFSET	 0.003987	 0.000323	 0.137245
					}
				}
			}
		}
	}
}
MOTION
Frames:    5
Frame Time: 0.01666667
 0.008212	 0.374097	 0.314771	-91.555050	-51.815940	-117.765000	-0.000029	-71.966360	 180.000000	-0.000009	 27.986970	 0.000000	 0.000000	 1.202067	 0.000000	 0.000000	-10.243090	-0.000000	 148.635400	-78.341930	-108.121200	-92.308600	 2.289846	-77.575110	-4.181287	-0.000022	 0.000030	-5.344975	 0.870103	-4.331705	-148.635400	-78.341930	 108.121200	 89.761530	 2.835501	 74.200550	 4.385233	 0.000036	-0.000039	 4.734182	 0.065784	 8.637247	-90.000010	-0.000009	-180.000000	-8.427348	-84.234080	 84.584360	 84.281090	 0.000006	-0.000135	 85.074480	 66.037500	 6.091362	-88.575780	 30.995550	-2.561642	-179.277900	-84.264660	-93.932850	-84.324310	-0.000016	-0.000037	-76.909370	 65.995280	-14.330650	 88.575770	 30.995540	 2.561643
 0.005623	 0.375721	 0.313286	-89.856820	-51.298010	-116.854900	-0.000029	-71.966360	 180.000000	-0.000009	 27.986970	 0.000000	 0.000000	 1.202067	 0.000000	 0.000000	-10.243090	-0.000000	 148.635400	-78.341930	-108.121200	-93.000230	 2.064782	-76.841050	-4.265951	-0.000005	 0.000031	-6.179125	 0.370846	-3.811435	-148.635400	-78.341930	 108.121200	 86.857800	 3.673394	 73.938200	 4.317086	 0.000033	-0.000035	 4.694414	-1.607212	 9.381078	-90.000010	-0.000009	-180.000000	-21.209970	-84.014470	 72.399220	 84.349340	 0.000012	-0.000104	 87.703980	 65.969040	 4.714241	-88.575780	 30.995550	-2.561642	 171.957600	-84.116330	-101.738600	-84.254910	-0.000018	-0.000043	-73.433680	 66.473880	-18.247990	 88.575770	 30.995540	 2.561643
 0.003499	 0.377056	 0.312069	-88.486680	-50.860490	-116.133800	-0.000029	-71.966360	 180.000000	-0.000009	 27.986970	 0.000000	 0.000000	 1.202067	 0.000000	 0.000000	-10.243090	-0.000000	 148.635400	-78.341930	-108.121200	-87.595890	 3.519783	-78.774030	-3.724842	-12.220780	 3.519571	-6.703780	 5.996436	-4.361812	-148.635400	-78.341930	 108.121200	 84.488220	 4.366066	 73.779360	 4.259255	 0.000036	-0.000044	 4.653245	-2.973946	 9.962921	-90.000010	-0.000009	-180.000000	 18.620050	-83.748500	 114.049800	 84.273280	-2.237915	-11.352210	 93.206310	 71.828450	-0.129130	-88.575780	 30.995550	-2.561642	 143.741400	-82.415220	-129.459600	-84.122310	-0.272297	 6.201030	-67.813710	 69.888850	-24.369100	 88.575770	 30.995540	 2.561643
 0.002373	 0.377764	 0.311424	-87.769070	-50.624180	-115.761000	-0.000029	-71.966360	 180.000000	-0.000009	 27.986970	 0.000000	 0.000000	 1.202067	 0.000000	 0.000000	-10.243090	-0.000000	 148.635400	-78.341930	-108.121200	-86.905860	 3.690320	-78.884160	-3.607854	-14.263630	 4.108283	-7.006051	 6.787077	-4.241825	-148.635400	-78.341930	 108.121200	 83.238960	 4.733466	 73.715550	 4.227945	 0.000039	-0.000049	 4.627990	-3.694139	 10.260050	-90.000010	-0.000009	-180.000000	 17.798030	-83.787890	 113.617000	 84.322720	-2.384457	-12.442290	 94.940380	 72.345850	-1.402574	-88.575780	 30.995550	-2.561642	 139.356000	-81.873170	-133.439000	-84.057850	-0.235103	 7.048456	-65.366730	 70.394680	-27.031100	 88.575770	 30.995540	 2.561643
-0.000009	 0.379265	 0.310062	-86.269850	-50.114410	-114.993300	-0.000029	-71.966360	 180.000000	-0.000009	 27.986970	 0.000000	 0.000000	 1.202067	 0.000000	 0.000000	-10.243090	-0.000000	 148.635400	-78.341930	-108.121200	-86.583730	 3.768420	-78.615580	-3.552981	-16.334490	 4.627364	-7.654400	 7.350309	-3.743919	-148.635400	-78.341930	 108.121200	 80.614200	 5.508094	 73.626240	 4.160377	 0.000024	-0.000042	 4.565962	-5.204368	 10.861460	-90.000010	-0.000009	-180.000000	 17.540490	-83.800110	 113.966900	 84.444860	-2.440114	-15.018300	 98.916560	 73.513560	-4.443453	-88.575780	 30.995550	-2.561642	 128.232100	-79.778020	-143.800900	-83.850850	-0.201693	 10.987820	-58.036920	 72.301100	-34.899950	 88.575770	 30.995540	 2.561643
